<svg
   xmlns:dc="http://purl.org/dc/elements/1.1/"
   xmlns:cc="http://creativecommons.org/ns#"
   xmlns:rdf="http://www.w3.org/1999/02/22-rdf-syntax-ns#"
   xmlns:svg="http://www.w3.org/2000/svg"
   xmlns="http://www.w3.org/2000/svg"
   xmlns:sodipodi="http://sodipodi.sourceforge.net/DTD/sodipodi-0.dtd"
   xmlns:inkscape="http://www.inkscape.org/namespaces/inkscape"
   version="1.1"
   id="svg2"
   xml:space="preserve"
   width="22.666668"
   height="22.666668"
   viewBox="0 0 22.666668 22.666668"
   sodipodi:docname="arrow_down.eps"><metadata
     id="metadata8"><rdf:RDF><cc:Work
         rdf:about=""><dc:format>image/svg+xml</dc:format><dc:type
           rdf:resource="http://purl.org/dc/dcmitype/StillImage" /></cc:Work></rdf:RDF></metadata><defs
     id="defs6" /><sodipodi:namedview
     pagecolor="#ffffff"
     bordercolor="#666666"
     borderopacity="1"
     objecttolerance="10"
     gridtolerance="10"
     guidetolerance="10"
     inkscape:pageopacity="0"
     inkscape:pageshadow="2"
     inkscape:window-width="640"
     inkscape:window-height="480"
     id="namedview4" /><g
     id="g10"
     inkscape:groupmode="layer"
     inkscape:label="ink_ext_XXXXXX"
     transform="matrix(1.3333333,0,0,-1.3333333,0,22.666667)"><g
       id="g12"
       transform="scale(0.1)"><path
         d="M 85,160 C 43.6445,160 10,126.355 10,85 10,43.6445 43.6445,10 85,10 c 41.355,0 75,33.6445 75,75 0,41.355 -33.645,75 -75,75 z M 85,0 C 38.1289,0 0,38.1289 0,85 c 0,46.871 38.1289,85 85,85 46.871,0 85,-38.129 85,-85 C 170,38.1289 131.871,0 85,0"
         style="fill:#ffffff;fill-opacity:1;fill-rule:nonzero;stroke:none"
         id="path14" /><path
         d="m 85,64.2344 c -3.4141,0 -6.8281,1.2969 -9.4297,3.8906 L 56.4648,87.2422 c -1.9531,1.9531 -1.9531,5.1172 0,7.0703 1.9532,1.9531 5.1172,1.9531 7.0704,0 L 82.6406,75.1992 c 1.3008,-1.2969 3.418,-1.3008 4.7188,0.0078 l 19.1056,19.1055 c 1.953,1.9531 5.117,1.9531 7.07,0 1.953,-1.9531 1.953,-5.1172 0,-7.0703 L 94.4297,68.1289 C 91.832,65.5313 88.4141,64.2344 85,64.2344"
         style="fill:#ffffff;fill-opacity:1;fill-rule:nonzero;stroke:none"
         id="path16" /></g></g></svg>
