<?xml version="1.0" encoding="UTF-8" standalone="no"?>
<svg
   xmlns:dc="http://purl.org/dc/elements/1.1/"
   xmlns:cc="http://creativecommons.org/ns#"
   xmlns:rdf="http://www.w3.org/1999/02/22-rdf-syntax-ns#"
   xmlns:svg="http://www.w3.org/2000/svg"
   xmlns="http://www.w3.org/2000/svg"
   viewBox="0 0 64 64"
   height="64"
   width="64"
   xml:space="preserve"
   id="svg2"
   version="1.1"><metadata
     id="metadata8"><rdf:RDF><cc:Work
         rdf:about=""><dc:format>image/svg+xml</dc:format><dc:type
           rdf:resource="http://purl.org/dc/dcmitype/StillImage" /></cc:Work></rdf:RDF></metadata><defs
     id="defs6"><clipPath
       id="clipPath18"
       clipPathUnits="userSpaceOnUse"><path
         id="path16"
         d="M 0,48 H 48 V 0 H 0 Z" /></clipPath></defs><g
     transform="matrix(1.3333333,0,0,-1.3333333,0,64)"
     id="g10"><g
       id="g12"><g
         clip-path="url(#clipPath18)"
         id="g14"><g
           transform="translate(48,24)"
           id="g20"><path
             id="path22"
             style="fill:#009bd5;fill-opacity:1;fill-rule:nonzero;stroke:none"
             d="M 0,0 C 0,-13.254 -10.746,-24 -23.999,-24 -37.254,-24 -48,-13.254 -48,0 -48,13.256 -37.254,24 -23.999,24 -10.746,24 0,13.256 0,0" /></g><g
           transform="translate(13.1489,23.1289)"
           id="g24"><path
             id="path26"
             style="fill:#ffffff;fill-opacity:1;fill-rule:nonzero;stroke:none"
             d="m 0,0 h 5.416 c 0,0 1.959,0.029 1.959,-2.689 0,-2.29 -1.463,-2.527 -2.232,-2.545 -0.145,-0.002 -0.266,0 -0.348,0 H 0 Z m 0,7.388 h 4.719 0.697 c 0,0 1.314,0 1.314,-2.035 C 6.73,3.316 5.957,3.02 5.08,3.02 H 0 Z M 0,-9.129 h 5.416 c 0,0 5.91,0.219 5.91,6.195 0,0 0.258,4.864 -3.484,4.864 0,0 2.838,0.222 2.838,3.725 0,3.505 -2.323,5.216 -5.264,5.216 H 0 -0.16 -4.031 v -20 h 3.871 z" /></g><g
           transform="translate(29.1548,23.1289)"
           id="g28"><path
             id="path30"
             style="fill:#ffffff;fill-opacity:1;fill-rule:nonzero;stroke:none"
             d="M 0,0 C 0,0 0.4,3.02 3.275,3.02 6.15,3.02 6.111,0 6.111,0 Z m 3.203,5.888 c -7.154,0 -7.148,-7.524 -7.148,-7.524 0,0 -0.492,-7.488 7.148,-7.488 0,0 6.367,-0.382 6.367,5.21 H 6.295 c 0,0 0.109,-2.107 -2.982,-2.107 0,0 -3.276,-0.231 -3.276,3.408 h 9.641 c 0,0 1.054,8.501 -6.475,8.501" /></g><path
           id="path32"
           style="fill:#ffffff;fill-opacity:1;fill-rule:nonzero;stroke:none"
           d="M 36.029,32.847 H 28.353 V 31 h 7.676 z" /><g
           transform="translate(48,24)"
           id="g34"><path
             id="path36"
             style="fill:#009bd5;fill-opacity:1;fill-rule:nonzero;stroke:none"
             d="M 0,0 C 0,-13.254 -10.746,-24 -23.999,-24 -37.254,-24 -48,-13.254 -48,0 -48,13.256 -37.254,24 -23.999,24 -10.746,24 0,13.256 0,0" /></g><g
           transform="translate(13.1489,23.1289)"
           id="g38"><path
             id="path40"
             style="fill:#ffffff;fill-opacity:1;fill-rule:nonzero;stroke:none"
             d="m 0,0 h 5.416 c 0,0 1.959,0.029 1.959,-2.689 0,-2.29 -1.463,-2.527 -2.232,-2.545 -0.145,-0.002 -0.266,0 -0.348,0 H 0 Z m 0,7.388 h 4.719 0.697 c 0,0 1.314,0 1.314,-2.035 C 6.73,3.316 5.957,3.02 5.08,3.02 H 0 Z M 0,-9.129 h 5.416 c 0,0 5.91,0.219 5.91,6.195 0,0 0.258,4.864 -3.484,4.864 0,0 2.838,0.222 2.838,3.725 0,3.505 -2.323,5.216 -5.264,5.216 H 0 -0.16 -4.031 v -20 h 3.871 z" /></g><g
           transform="translate(29.1548,23.1289)"
           id="g42"><path
             id="path44"
             style="fill:#ffffff;fill-opacity:1;fill-rule:nonzero;stroke:none"
             d="M 0,0 C 0,0 0.4,3.02 3.275,3.02 6.15,3.02 6.111,0 6.111,0 Z m 3.203,5.888 c -7.154,0 -7.148,-7.524 -7.148,-7.524 0,0 -0.492,-7.488 7.148,-7.488 0,0 6.367,-0.382 6.367,5.21 H 6.295 c 0,0 0.109,-2.107 -2.982,-2.107 0,0 -3.276,-0.231 -3.276,3.408 h 9.641 c 0,0 1.054,8.501 -6.475,8.501" /></g><path
           id="path46"
           style="fill:#ffffff;fill-opacity:1;fill-rule:nonzero;stroke:none"
           d="M 36.029,32.847 H 28.353 V 31 h 7.676 z" /><g
           transform="translate(48,24)"
           id="g48"><path
             id="path50"
             style="fill:#009bd5;fill-opacity:1;fill-rule:nonzero;stroke:none"
             d="M 0,0 C 0,-13.254 -10.746,-24 -23.999,-24 -37.254,-24 -48,-13.254 -48,0 -48,13.256 -37.254,24 -23.999,24 -10.746,24 0,13.256 0,0" /></g><g
           transform="translate(13.1489,23.1289)"
           id="g52"><path
             id="path54"
             style="fill:#ffffff;fill-opacity:1;fill-rule:nonzero;stroke:none"
             d="m 0,0 h 5.416 c 0,0 1.959,0.029 1.959,-2.689 0,-2.29 -1.463,-2.527 -2.232,-2.545 -0.145,-0.002 -0.266,0 -0.348,0 H 0 Z m 0,7.388 h 4.719 0.697 c 0,0 1.314,0 1.314,-2.035 C 6.73,3.316 5.957,3.02 5.08,3.02 H 0 Z M 0,-9.129 h 5.416 c 0,0 5.91,0.219 5.91,6.195 0,0 0.258,4.864 -3.484,4.864 0,0 2.838,0.222 2.838,3.725 0,3.505 -2.323,5.216 -5.264,5.216 H 0 -0.16 -4.031 v -20 h 3.871 z" /></g><g
           transform="translate(29.1548,23.1289)"
           id="g56"><path
             id="path58"
             style="fill:#ffffff;fill-opacity:1;fill-rule:nonzero;stroke:none"
             d="M 0,0 C 0,0 0.4,3.02 3.275,3.02 6.15,3.02 6.111,0 6.111,0 Z m 3.203,5.888 c -7.154,0 -7.148,-7.524 -7.148,-7.524 0,0 -0.492,-7.488 7.148,-7.488 0,0 6.367,-0.382 6.367,5.21 H 6.295 c 0,0 0.109,-2.107 -2.982,-2.107 0,0 -3.276,-0.231 -3.276,3.408 h 9.641 c 0,0 1.054,8.501 -6.475,8.501" /></g><path
           id="path60"
           style="fill:#ffffff;fill-opacity:1;fill-rule:nonzero;stroke:none"
           d="M 36.029,32.847 H 28.353 V 31 h 7.676 z" /></g></g></g></svg>