<?xml version="1.0" encoding="UTF-8" standalone="no"?>
<!-- Created with Inkscape (http://www.inkscape.org/) -->

<svg
   version="1.1"
   id="svg2"
   xml:space="preserve"
   width="64.002663"
   height="64"
   viewBox="0 0 64.002662 64"
   sodipodi:docname="f1596a11372ee685bbc7f99381add7c6.ai"
   xmlns:inkscape="http://www.inkscape.org/namespaces/inkscape"
   xmlns:sodipodi="http://sodipodi.sourceforge.net/DTD/sodipodi-0.dtd"
   xmlns="http://www.w3.org/2000/svg"
   xmlns:svg="http://www.w3.org/2000/svg"><defs
     id="defs6"><clipPath
       clipPathUnits="userSpaceOnUse"
       id="clipPath16"><path
         d="M 0,48 H 48.002 V 0 H 0 Z"
         id="path14" /></clipPath></defs><sodipodi:namedview
     id="namedview4"
     pagecolor="#ffffff"
     bordercolor="#666666"
     borderopacity="1.0"
     inkscape:pageshadow="2"
     inkscape:pageopacity="0.0"
     inkscape:pagecheckerboard="0" /><g
     id="g8"
     inkscape:groupmode="layer"
     inkscape:label="f1596a11372ee685bbc7f99381add7c6"
     transform="matrix(1.3333333,0,0,-1.3333333,0,63.999998)"><g
       id="g10"><g
         id="g12"
         clip-path="url(#clipPath16)"><g
           id="g18"
           transform="translate(48.002,24)"><path
             d="m 0,0 c 0,-13.254 -10.746,-24 -23.998,-24 -13.258,0 -24.004,10.746 -24.004,24 0,13.256 10.746,24 24.004,24 C -10.746,24 0,13.256 0,0"
             style="fill:#235b9f;fill-opacity:1;fill-rule:nonzero;stroke:none"
             id="path20" /></g><g
           id="g22"
           transform="translate(20.001,9)"><path
             d="m 0,0 h 6 v 15 h 4.453 L 11,21 H 6.232 v 2.399 c 0,1.169 0.779,1.442 1.326,1.442 h 3.366 v 5.14 L 6.289,30 C 1.144,30 -0.025,26.166 -0.025,23.712 V 21 H -3 v -6 h 3 z"
             style="fill:#ffffff;fill-opacity:1;fill-rule:nonzero;stroke:none"
             id="path24" /></g><g
           id="g26"
           transform="translate(48.002,24)"><path
             d="m 0,0 c 0,-13.254 -10.746,-24 -23.998,-24 -13.258,0 -24.004,10.746 -24.004,24 0,13.256 10.746,24 24.004,24 C -10.746,24 0,13.256 0,0"
             style="fill:#235b9f;fill-opacity:1;fill-rule:nonzero;stroke:none"
             id="path28" /></g><g
           id="g30"
           transform="translate(20.001,9)"><path
             d="m 0,0 h 6 v 15 h 4.453 L 11,21 H 6.232 v 2.399 c 0,1.169 0.779,1.442 1.326,1.442 h 3.366 v 5.14 L 6.289,30 C 1.144,30 -0.025,26.166 -0.025,23.712 V 21 H -3 v -6 h 3 z"
             style="fill:#ffffff;fill-opacity:1;fill-rule:nonzero;stroke:none"
             id="path32" /></g><g
           id="g34"
           transform="translate(30.4541,24)"><path
             d="m 0,0 h -4.453 v -15 h -6 V 0 h -3 v 6 h 2.975 v 2.712 c 0,2.454 1.169,6.288 6.314,6.288 l 4.635,-0.019 v -5.14 h -3.366 c -0.547,0 -1.326,-0.273 -1.326,-1.442 V 6 h 4.768 z m -6.45,24 c -13.258,0 -24.004,-10.744 -24.004,-24 0,-13.254 10.746,-24 24.004,-24 13.252,0 23.998,10.746 23.998,24 0,13.256 -10.746,24 -23.998,24"
             style="fill:#235b9f;fill-opacity:1;fill-rule:nonzero;stroke:none"
             id="path36" /></g></g></g></g></svg>
