<?xml version="1.0" encoding="UTF-8" standalone="no"?>
<svg
   xmlns:dc="http://purl.org/dc/elements/1.1/"
   xmlns:cc="http://creativecommons.org/ns#"
   xmlns:rdf="http://www.w3.org/1999/02/22-rdf-syntax-ns#"
   xmlns:svg="http://www.w3.org/2000/svg"
   xmlns="http://www.w3.org/2000/svg"
   viewBox="0 0 64 64"
   height="64"
   width="64"
   xml:space="preserve"
   id="svg2"
   version="1.1"><metadata
     id="metadata8"><rdf:RDF><cc:Work
         rdf:about=""><dc:format>image/svg+xml</dc:format><dc:type
           rdf:resource="http://purl.org/dc/dcmitype/StillImage" /></cc:Work></rdf:RDF></metadata><defs
     id="defs6"><clipPath
       id="clipPath18"
       clipPathUnits="userSpaceOnUse"><path
         id="path16"
         d="M 0,48 H 48 V 0 H 0 Z" /></clipPath></defs><g
     transform="matrix(1.3333333,0,0,-1.3333333,0,64)"
     id="g10"><g
       id="g12"><g
         clip-path="url(#clipPath18)"
         id="g14"><g
           transform="translate(48,24)"
           id="g20"><path
             id="path22"
             style="fill:#ff3b21;fill-opacity:1;fill-rule:nonzero;stroke:none"
             d="m 0,0 c 0,-13.254 -10.746,-24 -24,-24 -13.256,0 -24,10.746 -24,24 0,13.256 10.744,24 24,24 C -10.746,24 0,13.256 0,0" /></g><g
           transform="translate(31.9375,18.834)"
           id="g24"><path
             id="path26"
             style="fill:#ffffff;fill-opacity:1;fill-rule:nonzero;stroke:none"
             d="m 0,0 h 1.289 c 0.346,0 0.625,0.28 0.625,0.626 v 4.532 h 4.524 c 0.343,0 0.625,0.282 0.625,0.628 v 1.29 c 0,0.346 -0.282,0.628 -0.625,0.628 H 1.914 v 4.532 c 0,0.344 -0.279,0.626 -0.625,0.626 H 0 c -0.346,0 -0.627,-0.282 -0.627,-0.626 V 7.704 H -5.15 c -0.344,0 -0.625,-0.282 -0.625,-0.628 v -1.29 c 0,-0.346 0.281,-0.628 0.625,-0.628 h 4.523 V 0.626 C -0.627,0.28 -0.346,0 0,0" /></g><g
           transform="translate(18.209,20.1865)"
           id="g28"><path
             id="path30"
             style="fill:#ffffff;fill-opacity:1;fill-rule:nonzero;stroke:none"
             d="M 0,0 0.072,-0.002 C 0.662,-0.008 1.236,-0.097 1.779,-0.263 1.965,-0.39 2.145,-0.514 2.318,-0.63 3.572,-1.487 4.4,-2.054 4.633,-2.961 c 0.053,-0.227 0.08,-0.456 0.08,-0.678 0,-2.334 -1.738,-3.517 -5.166,-3.517 -2.6,0 -4.633,1.596 -4.633,3.635 C -5.086,-1.646 -2.709,0 0,0 m -3.381,10.938 c -0.172,1.319 0.104,2.502 0.76,3.252 0.424,0.486 0.978,0.74 1.599,0.74 l 0.073,-0.002 C 0.809,14.877 2.49,12.915 2.801,10.553 2.975,9.229 2.682,7.987 2.018,7.228 1.594,6.743 1.047,6.488 0.398,6.488 H 0.396 0.369 c -1.723,0.052 -3.441,2.093 -3.75,4.45 M -4.09,-9.246 c 1.145,-0.292 2.375,-0.441 3.653,-0.441 1.148,0 2.242,0.151 3.253,0.445 3.155,0.916 5.194,3.242 5.194,5.929 0,2.577 -0.826,4.119 -3.045,5.692 -0.951,0.675 -1.817,1.664 -1.832,1.969 0,0.553 0.049,0.818 1.289,1.787 1.603,1.256 2.486,2.909 2.486,4.657 0,1.583 -0.482,2.99 -1.306,3.978 H 6.24 c 0.133,0 0.262,0.041 0.367,0.117 l 1.78,1.292 c 0.22,0.158 0.314,0.442 0.228,0.7 -0.084,0.259 -0.324,0.434 -0.595,0.434 H 0.062 c -0.871,0 -1.755,-0.152 -2.623,-0.452 -2.9,-1.002 -4.927,-3.476 -4.927,-6.02 0,-3.599 2.783,-6.329 6.506,-6.415 -0.073,-0.286 -0.11,-0.568 -0.11,-0.843 0,-0.555 0.141,-1.08 0.43,-1.587 -0.035,-0.002 -0.067,-0.002 -0.104,-0.002 -3.546,0 -6.75,-1.744 -7.964,-4.341 -0.319,-0.674 -0.479,-1.355 -0.479,-2.028 0,-0.656 0.168,-1.286 0.496,-1.879 0.766,-1.37 2.406,-2.433 4.623,-2.992" /></g><g
           transform="translate(48,24)"
           id="g32"><path
             id="path34"
             style="fill:#ff3b21;fill-opacity:1;fill-rule:nonzero;stroke:none"
             d="m 0,0 c 0,-13.254 -10.746,-24 -24,-24 -13.256,0 -24,10.746 -24,24 0,13.256 10.744,24 24,24 C -10.746,24 0,13.256 0,0" /></g><g
           transform="translate(31.9375,18.834)"
           id="g36"><path
             id="path38"
             style="fill:#ffffff;fill-opacity:1;fill-rule:nonzero;stroke:none"
             d="m 0,0 h 1.289 c 0.346,0 0.625,0.28 0.625,0.626 v 4.532 h 4.524 c 0.343,0 0.625,0.282 0.625,0.628 v 1.29 c 0,0.346 -0.282,0.628 -0.625,0.628 H 1.914 v 4.532 c 0,0.344 -0.279,0.626 -0.625,0.626 H 0 c -0.346,0 -0.627,-0.282 -0.627,-0.626 V 7.704 H -5.15 c -0.344,0 -0.625,-0.282 -0.625,-0.628 v -1.29 c 0,-0.346 0.281,-0.628 0.625,-0.628 h 4.523 V 0.626 C -0.627,0.28 -0.346,0 0,0" /></g><g
           transform="translate(18.209,20.1865)"
           id="g40"><path
             id="path42"
             style="fill:#ffffff;fill-opacity:1;fill-rule:nonzero;stroke:none"
             d="M 0,0 0.072,-0.002 C 0.662,-0.008 1.236,-0.097 1.779,-0.263 1.965,-0.39 2.145,-0.514 2.318,-0.63 3.572,-1.487 4.4,-2.054 4.633,-2.961 c 0.053,-0.227 0.08,-0.456 0.08,-0.678 0,-2.334 -1.738,-3.517 -5.166,-3.517 -2.6,0 -4.633,1.596 -4.633,3.635 C -5.086,-1.646 -2.709,0 0,0 m -3.381,10.938 c -0.172,1.319 0.104,2.502 0.76,3.252 0.424,0.486 0.978,0.74 1.599,0.74 l 0.073,-0.002 C 0.809,14.877 2.49,12.915 2.801,10.553 2.975,9.229 2.682,7.987 2.018,7.228 1.594,6.743 1.047,6.488 0.398,6.488 H 0.396 0.369 c -1.723,0.052 -3.441,2.093 -3.75,4.45 M -4.09,-9.246 c 1.145,-0.292 2.375,-0.441 3.653,-0.441 1.148,0 2.242,0.151 3.253,0.445 3.155,0.916 5.194,3.242 5.194,5.929 0,2.577 -0.826,4.119 -3.045,5.692 -0.951,0.675 -1.817,1.664 -1.832,1.969 0,0.553 0.049,0.818 1.289,1.787 1.603,1.256 2.486,2.909 2.486,4.657 0,1.583 -0.482,2.99 -1.306,3.978 H 6.24 c 0.133,0 0.262,0.041 0.367,0.117 l 1.78,1.292 c 0.22,0.158 0.314,0.442 0.228,0.7 -0.084,0.259 -0.324,0.434 -0.595,0.434 H 0.062 c -0.871,0 -1.755,-0.152 -2.623,-0.452 -2.9,-1.002 -4.927,-3.476 -4.927,-6.02 0,-3.599 2.783,-6.329 6.506,-6.415 -0.073,-0.286 -0.11,-0.568 -0.11,-0.843 0,-0.555 0.141,-1.08 0.43,-1.587 -0.035,-0.002 -0.067,-0.002 -0.104,-0.002 -3.546,0 -6.75,-1.744 -7.964,-4.341 -0.319,-0.674 -0.479,-1.355 -0.479,-2.028 0,-0.656 0.168,-1.286 0.496,-1.879 0.766,-1.37 2.406,-2.433 4.623,-2.992" /></g><g
           transform="translate(18.605,26.6748)"
           id="g44"><path
             id="path46"
             style="fill:#ff3b21;fill-opacity:1;fill-rule:nonzero;stroke:none"
             d="m 0,0 h 0.002 c 0.649,0 1.196,0.254 1.62,0.739 0.664,0.76 0.957,2.002 0.783,3.325 -0.311,2.362 -1.992,4.325 -3.75,4.375 L -1.418,8.441 C -2.039,8.441 -2.593,8.188 -3.017,7.702 -3.673,6.952 -3.949,5.769 -3.777,4.449 -3.468,2.092 -1.75,0.051 -0.027,0 Z" /></g><g
           transform="translate(20.5269,19.5562)"
           id="g48"><path
             id="path50"
             style="fill:#ff3b21;fill-opacity:1;fill-rule:nonzero;stroke:none"
             d="m 0,0 c -0.173,0.117 -0.353,0.241 -0.539,0.368 -0.543,0.166 -1.117,0.254 -1.707,0.26 L -2.318,0.63 c -2.709,0 -5.086,-1.646 -5.086,-3.52 0,-2.039 2.033,-3.636 4.633,-3.636 3.428,0 5.166,1.184 5.166,3.518 0,0.221 -0.027,0.45 -0.08,0.677 C 2.082,-1.423 1.254,-0.857 0,0" /></g><g
           transform="translate(39.0005,24.6201)"
           id="g52"><path
             id="path54"
             style="fill:#ff3b21;fill-opacity:1;fill-rule:nonzero;stroke:none"
             d="M 0,0 C 0,-0.346 -0.282,-0.628 -0.625,-0.628 H -5.149 V -5.16 c 0,-0.346 -0.279,-0.626 -0.625,-0.626 h -1.289 c -0.346,0 -0.627,0.28 -0.627,0.626 v 4.532 h -4.523 c -0.344,0 -0.625,0.282 -0.625,0.628 v 1.29 c 0,0.346 0.281,0.628 0.625,0.628 H -7.69 V 6.45 c 0,0.344 0.281,0.626 0.627,0.626 h 1.289 c 0.346,0 0.625,-0.282 0.625,-0.626 V 1.918 h 4.524 C -0.282,1.918 0,1.636 0,1.29 Z m -17.976,-13.676 c -1.01,-0.294 -2.105,-0.444 -3.253,-0.444 -1.277,0 -2.507,0.148 -3.652,0.44 -2.218,0.56 -3.857,1.622 -4.623,2.992 -0.329,0.593 -0.496,1.223 -0.496,1.879 0,0.673 0.16,1.355 0.479,2.029 1.213,2.596 4.417,4.34 7.963,4.34 0.037,0 0.07,0 0.104,0.002 -0.289,0.507 -0.429,1.033 -0.429,1.587 0,0.276 0.036,0.557 0.11,0.843 -3.724,0.086 -6.506,2.816 -6.506,6.415 0,2.544 2.027,5.019 4.926,6.021 0.869,0.299 1.752,0.452 2.624,0.452 h 7.958 c 0.271,0 0.511,-0.176 0.595,-0.435 0.086,-0.258 -0.009,-0.542 -0.228,-0.7 l -1.781,-1.292 c -0.105,-0.076 -0.233,-0.117 -0.366,-0.117 h -0.638 c 0.824,-0.988 1.306,-2.395 1.306,-3.978 0,-1.748 -0.884,-3.401 -2.487,-4.657 -1.239,-0.969 -1.289,-1.233 -1.289,-1.787 0.015,-0.305 0.882,-1.294 1.832,-1.969 2.22,-1.573 3.046,-3.115 3.046,-5.692 0,-2.687 -2.039,-5.013 -5.195,-5.929 M -15,23.38 c -13.256,0 -24,-10.744 -24,-24 0,-13.254 10.744,-24 24,-24 13.253,0 24,10.746 24,24 0,13.256 -10.747,24 -24,24" /></g></g></g></g></svg>