<?xml version="1.0" encoding="UTF-8" standalone="no"?>
<svg
   xmlns:dc="http://purl.org/dc/elements/1.1/"
   xmlns:cc="http://creativecommons.org/ns#"
   xmlns:rdf="http://www.w3.org/1999/02/22-rdf-syntax-ns#"
   xmlns:svg="http://www.w3.org/2000/svg"
   xmlns="http://www.w3.org/2000/svg"
   viewBox="0 0 64.00267 64"
   height="64"
   width="64.00267"
   xml:space="preserve"
   id="svg2"
   version="1.1"><metadata
     id="metadata8"><rdf:RDF><cc:Work
         rdf:about=""><dc:format>image/svg+xml</dc:format><dc:type
           rdf:resource="http://purl.org/dc/dcmitype/StillImage" /></cc:Work></rdf:RDF></metadata><defs
     id="defs6"><clipPath
       id="clipPath18"
       clipPathUnits="userSpaceOnUse"><path
         id="path16"
         d="M 0,48 H 48.002 V 0 H 0 Z" /></clipPath></defs><g
     transform="matrix(1.3333333,0,0,-1.3333333,0,64)"
     id="g10"><g
       id="g12"><g
         clip-path="url(#clipPath18)"
         id="g14"><g
           transform="translate(48.002,24)"
           id="g20"><path
             id="path22"
             style="fill:#ff73a6;fill-opacity:1;fill-rule:nonzero;stroke:none"
             d="m 0,0 c 0,-13.254 -10.746,-24 -24.001,-24 -13.255,0 -24.001,10.746 -24.001,24 0,13.256 10.746,24 24.001,24 C -10.746,24 0,13.256 0,0" /></g><g
           transform="translate(27.8853,24.5469)"
           id="g24"><path
             id="path26"
             style="fill:#ffffff;fill-opacity:1;fill-rule:nonzero;stroke:none"
             d="M 0,0 C -0.091,0.22 -0.182,0.439 -0.276,0.662 -0.543,1.288 -0.83,1.91 -1.128,2.52 3.931,4.584 5.984,7.555 6.01,7.59 7.805,5.408 8.892,2.62 8.921,-0.419 8.736,-0.379 4.401,0.554 0,0 M 3.274,-11.172 C 3.144,-10.397 2.461,-6.639 0.78,-2.021 4.916,-1.36 8.5,-2.494 8.764,-2.58 8.193,-6.15 6.149,-9.229 3.274,-11.172 m -7.158,-2.185 c -2.97,0 -5.697,1.019 -7.871,2.715 l -10e-4,-0.004 c 0,0 -0.119,0.088 -0.288,0.224 0.094,-0.077 0.193,-0.144 0.289,-0.22 0.024,0.05 2.489,5.365 10.051,7.998 0.028,0.011 0.057,0.02 0.085,0.028 1.803,-4.684 2.547,-8.607 2.736,-9.727 -1.536,-0.652 -3.227,-1.014 -5.001,-1.014 m -9.527,4.25 c -2.04,2.269 -3.282,5.27 -3.282,8.561 0,0.136 0.005,0.271 0.01,0.404 0.226,-0.004 6.555,-0.148 13.151,1.826 0.367,-0.719 0.719,-1.449 1.039,-2.177 -0.169,-0.048 -0.337,-0.099 -0.505,-0.153 -6.912,-2.235 -10.418,-8.455 -10.418,-8.455 0,0 0.004,-0.004 0.005,-0.006 m 4.061,20.146 c 0.17,-0.229 2.54,-3.44 4.757,-7.381 -6.15,-1.635 -11.488,-1.571 -11.827,-1.565 0.833,3.969 3.497,7.259 7.07,8.946 m 2.399,0.852 c -0.001,-10e-4 -0.003,-0.002 -0.003,-0.002 0,0 -0.015,-0.004 -0.039,-0.009 0.014,0.004 0.028,0.006 0.042,0.011 m 3.067,0.372 c 3.243,0 6.203,-1.209 8.461,-3.197 C 4.545,9.017 2.721,6.239 -2.115,4.428 c -2.19,4.023 -4.595,7.219 -4.788,7.473 0.968,0.235 1.978,0.362 3.019,0.362 M 9.936,5.292 C 9.56,6.182 9.094,7.039 8.552,7.84 8.017,8.634 7.4,9.381 6.723,10.059 6.044,10.737 5.297,11.354 4.504,11.89 c -0.802,0.543 -1.66,1.006 -2.549,1.383 -0.906,0.382 -1.855,0.678 -2.819,0.874 -0.988,0.203 -2.003,0.306 -3.02,0.306 -1.015,0 -2.033,-0.103 -3.021,-0.306 -0.964,-0.196 -1.912,-0.492 -2.818,-0.874 -0.889,-0.377 -1.747,-0.84 -2.548,-1.383 -0.795,-0.536 -1.542,-1.153 -2.22,-1.831 -0.677,-0.678 -1.293,-1.425 -1.83,-2.219 -0.542,-0.801 -1.008,-1.658 -1.382,-2.548 -0.384,-0.906 -0.679,-1.855 -0.877,-2.819 -0.201,-0.987 -0.304,-2.003 -0.304,-3.019 0,-1.017 0.103,-2.034 0.304,-3.022 0.198,-0.964 0.493,-1.912 0.877,-2.818 0.374,-0.889 0.84,-1.748 1.382,-2.55 0.537,-0.793 1.153,-1.539 1.83,-2.218 0.678,-0.678 1.425,-1.293 2.22,-1.83 0.801,-0.541 1.659,-1.007 2.548,-1.383 0.906,-0.384 1.854,-0.677 2.818,-0.875 0.988,-0.203 2.006,-0.305 3.021,-0.305 1.017,0 2.032,0.102 3.02,0.305 0.964,0.198 1.913,0.491 2.819,0.875 0.889,0.376 1.747,0.842 2.549,1.383 0.793,0.537 1.54,1.152 2.219,1.83 0.677,0.679 1.294,1.425 1.829,2.218 0.542,0.802 1.008,1.661 1.384,2.55 0.383,0.906 0.677,1.854 0.875,2.818 0.202,0.988 0.304,2.005 0.304,3.022 0,1.016 -0.102,2.032 -0.304,3.019 -0.198,0.964 -0.492,1.913 -0.875,2.819" /></g><g
           transform="translate(48.002,24)"
           id="g28"><path
             id="path30"
             style="fill:#ff73a6;fill-opacity:1;fill-rule:nonzero;stroke:none"
             d="m 0,0 c 0,-13.254 -10.746,-24 -24.001,-24 -13.255,0 -24.001,10.746 -24.001,24 0,13.256 10.746,24 24.001,24 C -10.746,24 0,13.256 0,0" /></g><g
           transform="translate(27.8853,24.5469)"
           id="g32"><path
             id="path34"
             style="fill:#ffffff;fill-opacity:1;fill-rule:nonzero;stroke:none"
             d="M 0,0 C -0.091,0.22 -0.182,0.439 -0.276,0.662 -0.543,1.288 -0.83,1.91 -1.128,2.52 3.931,4.584 5.984,7.555 6.01,7.59 7.805,5.408 8.892,2.62 8.921,-0.419 8.736,-0.379 4.401,0.554 0,0 M 3.274,-11.172 C 3.144,-10.397 2.461,-6.639 0.78,-2.021 4.916,-1.36 8.5,-2.494 8.764,-2.58 8.193,-6.15 6.149,-9.229 3.274,-11.172 m -7.158,-2.185 c -2.97,0 -5.697,1.019 -7.871,2.715 l -10e-4,-0.004 c 0,0 -0.119,0.088 -0.288,0.224 0.094,-0.077 0.193,-0.144 0.289,-0.22 0.024,0.05 2.489,5.365 10.051,7.998 0.028,0.011 0.057,0.02 0.085,0.028 1.803,-4.684 2.547,-8.607 2.736,-9.727 -1.536,-0.652 -3.227,-1.014 -5.001,-1.014 m -9.527,4.25 c -2.04,2.269 -3.282,5.27 -3.282,8.561 0,0.136 0.005,0.271 0.01,0.404 0.226,-0.004 6.555,-0.148 13.151,1.826 0.367,-0.719 0.719,-1.449 1.039,-2.177 -0.169,-0.048 -0.337,-0.099 -0.505,-0.153 -6.912,-2.235 -10.418,-8.455 -10.418,-8.455 0,0 0.004,-0.004 0.005,-0.006 m 4.061,20.146 c 0.17,-0.229 2.54,-3.44 4.757,-7.381 -6.15,-1.635 -11.488,-1.571 -11.827,-1.565 0.833,3.969 3.497,7.259 7.07,8.946 m 2.399,0.852 c -0.001,-10e-4 -0.003,-0.002 -0.003,-0.002 0,0 -0.015,-0.004 -0.039,-0.009 0.014,0.004 0.028,0.006 0.042,0.011 m 3.067,0.372 c 3.243,0 6.203,-1.209 8.461,-3.197 C 4.545,9.017 2.721,6.239 -2.115,4.428 c -2.19,4.023 -4.595,7.219 -4.788,7.473 0.968,0.235 1.978,0.362 3.019,0.362 M 9.936,5.292 C 9.56,6.182 9.094,7.039 8.552,7.84 8.017,8.634 7.4,9.381 6.723,10.059 6.044,10.737 5.297,11.354 4.504,11.89 c -0.802,0.543 -1.66,1.006 -2.549,1.383 -0.906,0.382 -1.855,0.678 -2.819,0.874 -0.988,0.203 -2.003,0.306 -3.02,0.306 -1.015,0 -2.033,-0.103 -3.021,-0.306 -0.964,-0.196 -1.912,-0.492 -2.818,-0.874 -0.889,-0.377 -1.747,-0.84 -2.548,-1.383 -0.795,-0.536 -1.542,-1.153 -2.22,-1.831 -0.677,-0.678 -1.293,-1.425 -1.83,-2.219 -0.542,-0.801 -1.008,-1.658 -1.382,-2.548 -0.384,-0.906 -0.679,-1.855 -0.877,-2.819 -0.201,-0.987 -0.304,-2.003 -0.304,-3.019 0,-1.017 0.103,-2.034 0.304,-3.022 0.198,-0.964 0.493,-1.912 0.877,-2.818 0.374,-0.889 0.84,-1.748 1.382,-2.55 0.537,-0.793 1.153,-1.539 1.83,-2.218 0.678,-0.678 1.425,-1.293 2.22,-1.83 0.801,-0.541 1.659,-1.007 2.548,-1.383 0.906,-0.384 1.854,-0.677 2.818,-0.875 0.988,-0.203 2.006,-0.305 3.021,-0.305 1.017,0 2.032,0.102 3.02,0.305 0.964,0.198 1.913,0.491 2.819,0.875 0.889,0.376 1.747,0.842 2.549,1.383 0.793,0.537 1.54,1.152 2.219,1.83 0.677,0.679 1.294,1.425 1.829,2.218 0.542,0.802 1.008,1.661 1.384,2.55 0.383,0.906 0.677,1.854 0.875,2.818 0.202,0.988 0.304,2.005 0.304,3.022 0,1.016 -0.102,2.032 -0.304,3.019 -0.198,0.964 -0.492,1.913 -0.875,2.819" /></g><g
           transform="translate(48.002,24)"
           id="g36"><path
             id="path38"
             style="fill:#ff73a6;fill-opacity:1;fill-rule:nonzero;stroke:none"
             d="m 0,0 c 0,-13.254 -10.746,-24 -24.001,-24 -13.255,0 -24.001,10.746 -24.001,24 0,13.256 10.746,24 24.001,24 C -10.746,24 0,13.256 0,0" /></g><g
           transform="translate(27.8853,24.5469)"
           id="g40"><path
             id="path42"
             style="fill:#ffffff;fill-opacity:1;fill-rule:nonzero;stroke:none"
             d="M 0,0 C -0.091,0.22 -0.182,0.439 -0.276,0.662 -0.543,1.288 -0.83,1.91 -1.128,2.52 3.931,4.584 5.984,7.555 6.01,7.59 7.805,5.408 8.892,2.62 8.921,-0.419 8.736,-0.379 4.401,0.554 0,0 M 3.274,-11.172 C 3.144,-10.397 2.461,-6.639 0.78,-2.021 4.916,-1.36 8.5,-2.494 8.764,-2.58 8.193,-6.15 6.149,-9.229 3.274,-11.172 m -7.158,-2.185 c -2.97,0 -5.697,1.019 -7.871,2.715 l -10e-4,-0.004 c 0,0 -0.119,0.088 -0.288,0.224 0.094,-0.077 0.193,-0.144 0.289,-0.22 0.024,0.05 2.489,5.365 10.051,7.998 0.028,0.011 0.057,0.02 0.085,0.028 1.803,-4.684 2.547,-8.607 2.736,-9.727 -1.536,-0.652 -3.227,-1.014 -5.001,-1.014 m -9.527,4.25 c -2.04,2.269 -3.282,5.27 -3.282,8.561 0,0.136 0.005,0.271 0.01,0.404 0.226,-0.004 6.555,-0.148 13.151,1.826 0.367,-0.719 0.719,-1.449 1.039,-2.177 -0.169,-0.048 -0.337,-0.099 -0.505,-0.153 -6.912,-2.235 -10.418,-8.455 -10.418,-8.455 0,0 0.004,-0.004 0.005,-0.006 m 4.061,20.146 c 0.17,-0.229 2.54,-3.44 4.757,-7.381 -6.15,-1.635 -11.488,-1.571 -11.827,-1.565 0.833,3.969 3.497,7.259 7.07,8.946 m 2.399,0.852 c -0.001,-10e-4 -0.003,-0.002 -0.003,-0.002 0,0 -0.015,-0.004 -0.039,-0.009 0.014,0.004 0.028,0.006 0.042,0.011 m 3.067,0.372 c 3.243,0 6.203,-1.209 8.461,-3.197 C 4.545,9.017 2.721,6.239 -2.115,4.428 c -2.19,4.023 -4.595,7.219 -4.788,7.473 0.968,0.235 1.978,0.362 3.019,0.362 M 9.936,5.292 C 9.56,6.182 9.094,7.039 8.552,7.84 8.017,8.634 7.4,9.381 6.723,10.059 6.044,10.737 5.297,11.354 4.504,11.89 c -0.802,0.543 -1.66,1.006 -2.549,1.383 -0.906,0.382 -1.855,0.678 -2.819,0.874 -0.988,0.203 -2.003,0.306 -3.02,0.306 -1.015,0 -2.033,-0.103 -3.021,-0.306 -0.964,-0.196 -1.912,-0.492 -2.818,-0.874 -0.889,-0.377 -1.747,-0.84 -2.548,-1.383 -0.795,-0.536 -1.542,-1.153 -2.22,-1.831 -0.677,-0.678 -1.293,-1.425 -1.83,-2.219 -0.542,-0.801 -1.008,-1.658 -1.382,-2.548 -0.384,-0.906 -0.679,-1.855 -0.877,-2.819 -0.201,-0.987 -0.304,-2.003 -0.304,-3.019 0,-1.017 0.103,-2.034 0.304,-3.022 0.198,-0.964 0.493,-1.912 0.877,-2.818 0.374,-0.889 0.84,-1.748 1.382,-2.55 0.537,-0.793 1.153,-1.539 1.83,-2.218 0.678,-0.678 1.425,-1.293 2.22,-1.83 0.801,-0.541 1.659,-1.007 2.548,-1.383 0.906,-0.384 1.854,-0.677 2.818,-0.875 0.988,-0.203 2.006,-0.305 3.021,-0.305 1.017,0 2.032,0.102 3.02,0.305 0.964,0.198 1.913,0.491 2.819,0.875 0.889,0.376 1.747,0.842 2.549,1.383 0.793,0.537 1.54,1.152 2.219,1.83 0.677,0.679 1.294,1.425 1.829,2.218 0.542,0.802 1.008,1.661 1.384,2.55 0.383,0.906 0.677,1.854 0.875,2.818 0.202,0.988 0.304,2.005 0.304,3.022 0,1.016 -0.102,2.032 -0.304,3.019 -0.198,0.964 -0.492,1.913 -0.875,2.819" /></g></g></g></g></svg>