<?xml version="1.0" encoding="UTF-8" standalone="no"?>
<svg
   xmlns:dc="http://purl.org/dc/elements/1.1/"
   xmlns:cc="http://creativecommons.org/ns#"
   xmlns:rdf="http://www.w3.org/1999/02/22-rdf-syntax-ns#"
   xmlns:svg="http://www.w3.org/2000/svg"
   xmlns="http://www.w3.org/2000/svg"
   viewBox="0 0 64.003868 64"
   height="64"
   width="64.003868"
   xml:space="preserve"
   id="svg2"
   version="1.1"><metadata
     id="metadata8"><rdf:RDF><cc:Work
         rdf:about=""><dc:format>image/svg+xml</dc:format><dc:type
           rdf:resource="http://purl.org/dc/dcmitype/StillImage" /></cc:Work></rdf:RDF></metadata><defs
     id="defs6"><clipPath
       id="clipPath18"
       clipPathUnits="userSpaceOnUse"><path
         id="path16"
         d="M 0,48 H 48.003 V 0 H 0 Z" /></clipPath></defs><g
     transform="matrix(1.3333333,0,0,-1.3333333,0,64)"
     id="g10"><g
       id="g12"><g
         clip-path="url(#clipPath18)"
         id="g14"><g
           transform="translate(48.0029,24)"
           id="g20"><path
             id="path22"
             style="fill:#00ace4;fill-opacity:1;fill-rule:nonzero;stroke:none"
             d="m 0,0 c 0,-13.254 -10.746,-24 -24,-24 -13.257,0 -24.003,10.746 -24.003,24 0,13.256 10.746,24 24.003,24 C -10.746,24 0,13.256 0,0" /></g><g
           transform="translate(38.1748,35.5576)"
           id="g24"><path
             id="path26"
             style="fill:#ffffff;fill-opacity:1;fill-rule:nonzero;stroke:none"
             d="m 0,0 c -1.189,-0.695 -2.508,-1.2 -3.91,-1.472 -1.121,1.178 -2.721,1.914 -4.492,1.914 -3.399,0 -6.155,-2.713 -6.155,-6.059 0,-0.475 0.055,-0.936 0.159,-1.381 -5.116,0.253 -9.651,2.665 -12.687,6.331 -0.529,-0.894 -0.834,-1.935 -0.834,-3.047 0,-2.101 1.089,-3.955 2.739,-5.042 -1.007,0.032 -1.958,0.304 -2.788,0.758 v -0.076 c 0,-2.935 2.122,-5.384 4.939,-5.942 -0.518,-0.138 -1.061,-0.212 -1.623,-0.212 -0.397,0 -0.782,0.038 -1.158,0.108 0.785,-2.406 3.056,-4.159 5.75,-4.207 -2.108,-1.625 -4.76,-2.594 -7.646,-2.594 -0.498,0 -0.986,0.029 -1.469,0.085 2.726,-1.719 5.962,-2.722 9.437,-2.722 11.322,0 17.511,9.232 17.511,17.238 0,0.263 -0.003,0.525 -0.015,0.785 1.201,0.853 2.246,1.92 3.07,3.137 C -0.275,-2.881 -1.461,-3.206 -2.707,-3.352 -1.435,-2.603 -0.461,-1.416 0,0" /></g><g
           transform="translate(48.0029,24)"
           id="g28"><path
             id="path30"
             style="fill:#00ace4;fill-opacity:1;fill-rule:nonzero;stroke:none"
             d="m 0,0 c 0,-13.254 -10.746,-24 -24,-24 -13.257,0 -24.003,10.746 -24.003,24 0,13.256 10.746,24 24.003,24 C -10.746,24 0,13.256 0,0" /></g><g
           transform="translate(38.1748,35.5576)"
           id="g32"><path
             id="path34"
             style="fill:#ffffff;fill-opacity:1;fill-rule:nonzero;stroke:none"
             d="m 0,0 c -1.189,-0.695 -2.508,-1.2 -3.91,-1.472 -1.121,1.178 -2.721,1.914 -4.492,1.914 -3.399,0 -6.155,-2.713 -6.155,-6.059 0,-0.475 0.055,-0.936 0.159,-1.381 -5.116,0.253 -9.651,2.665 -12.687,6.331 -0.529,-0.894 -0.834,-1.935 -0.834,-3.047 0,-2.101 1.089,-3.955 2.739,-5.042 -1.007,0.032 -1.958,0.304 -2.788,0.758 v -0.076 c 0,-2.935 2.122,-5.384 4.939,-5.942 -0.518,-0.138 -1.061,-0.212 -1.623,-0.212 -0.397,0 -0.782,0.038 -1.158,0.108 0.785,-2.406 3.056,-4.159 5.75,-4.207 -2.108,-1.625 -4.76,-2.594 -7.646,-2.594 -0.498,0 -0.986,0.029 -1.469,0.085 2.726,-1.719 5.962,-2.722 9.437,-2.722 11.322,0 17.511,9.232 17.511,17.238 0,0.263 -0.003,0.525 -0.015,0.785 1.201,0.853 2.246,1.92 3.07,3.137 C -0.275,-2.881 -1.461,-3.206 -2.707,-3.352 -1.435,-2.603 -0.461,-1.416 0,0" /></g><g
           transform="translate(35.9326,30.0225)"
           id="g36"><path
             id="path38"
             style="fill:#00ace4;fill-opacity:1;fill-rule:nonzero;stroke:none"
             d="m 0,0 c 0.012,-0.26 0.015,-0.521 0.015,-0.785 0,-8.006 -6.189,-17.237 -17.511,-17.237 -3.475,0 -6.711,1.002 -9.437,2.721 0.483,-0.055 0.971,-0.085 1.469,-0.085 2.886,0 5.538,0.969 7.646,2.594 -2.694,0.048 -4.965,1.801 -5.75,4.207 0.376,-0.07 0.761,-0.107 1.158,-0.107 0.562,0 1.105,0.073 1.623,0.212 -2.817,0.557 -4.939,3.006 -4.939,5.941 v 0.076 c 0.83,-0.454 1.781,-0.725 2.788,-0.758 -1.65,1.087 -2.739,2.941 -2.739,5.042 0,1.113 0.305,2.154 0.834,3.047 3.036,-3.666 7.571,-6.078 12.687,-6.331 -0.104,0.445 -0.159,0.906 -0.159,1.381 0,3.346 2.756,6.06 6.155,6.06 1.771,0 3.371,-0.737 4.492,-1.915 1.402,0.272 2.721,0.777 3.91,1.472 C 1.781,4.119 0.807,2.933 -0.465,2.184 0.781,2.329 1.967,2.654 3.07,3.137 2.246,1.92 1.201,0.854 0,0 m -11.93,17.978 c -13.257,0 -24.003,-10.745 -24.003,-24 0,-13.254 10.746,-24 24.003,-24 13.254,0 24,10.746 24,24 0,13.255 -10.746,24 -24,24" /></g></g></g></g></svg>