<?xml version="1.0" encoding="UTF-8" standalone="no"?>
<svg
   xmlns:dc="http://purl.org/dc/elements/1.1/"
   xmlns:cc="http://creativecommons.org/ns#"
   xmlns:rdf="http://www.w3.org/1999/02/22-rdf-syntax-ns#"
   xmlns:svg="http://www.w3.org/2000/svg"
   xmlns="http://www.w3.org/2000/svg"
   xmlns:sodipodi="http://sodipodi.sourceforge.net/DTD/sodipodi-0.dtd"
   xmlns:inkscape="http://www.inkscape.org/namespaces/inkscape"
   version="1.1"
   id="svg2"
   xml:space="preserve"
   width="14.666667"
   height="14.666667"
   viewBox="0 0 14.666667 14.666667"
   sodipodi:docname="close.eps"><metadata
     id="metadata8"><rdf:RDF><cc:Work
         rdf:about=""><dc:format>image/svg+xml</dc:format><dc:type
           rdf:resource="http://purl.org/dc/dcmitype/StillImage" /></cc:Work></rdf:RDF></metadata><defs
     id="defs6" /><sodipodi:namedview
     pagecolor="#ffffff"
     bordercolor="#666666"
     borderopacity="1"
     objecttolerance="10"
     gridtolerance="10"
     guidetolerance="10"
     inkscape:pageopacity="0"
     inkscape:pageshadow="2"
     inkscape:window-width="640"
     inkscape:window-height="480"
     id="namedview4" /><g
     id="g10"
     inkscape:groupmode="layer"
     inkscape:label="ink_ext_XXXXXX"
     transform="matrix(1.3333333,0,0,-1.3333333,0,14.666667)"><g
       id="g12"
       transform="scale(0.1)"><path
         d="m 105,0 c -1.277,0 -2.559,0.488281 -3.535,1.46484 L 1.46484,101.465 c -1.953121,1.953 -1.953121,5.117 0,7.07 1.95313,1.953 5.11719,1.953 7.07032,0 L 108.535,8.53516 c 1.953,-1.95313 1.953,-5.11719 0,-7.07032 C 107.559,0.488281 106.277,0 105,0"
         style="fill:#ffffff;fill-opacity:1;fill-rule:nonzero;stroke:none"
         id="path14" /><path
         d="M 5,0 C 3.71875,0 2.44141,0.488281 1.46484,1.46484 c -1.953121,1.95313 -1.953121,5.11719 0,7.07032 L 101.465,108.535 c 1.953,1.953 5.117,1.953 7.07,0 1.953,-1.953 1.953,-5.117 0,-7.07 L 8.53516,1.46484 C 7.55859,0.488281 6.28125,0 5,0"
         style="fill:#ffffff;fill-opacity:1;fill-rule:nonzero;stroke:none"
         id="path16" /></g></g></svg>
