<?xml version="1.0" encoding="UTF-8" standalone="no"?>
<svg
   xmlns:dc="http://purl.org/dc/elements/1.1/"
   xmlns:cc="http://creativecommons.org/ns#"
   xmlns:rdf="http://www.w3.org/1999/02/22-rdf-syntax-ns#"
   xmlns:svg="http://www.w3.org/2000/svg"
   xmlns="http://www.w3.org/2000/svg"
   xmlns:sodipodi="http://sodipodi.sourceforge.net/DTD/sodipodi-0.dtd"
   xmlns:inkscape="http://www.inkscape.org/namespaces/inkscape"
   version="1.1"
   id="svg2"
   xml:space="preserve"
   width="17.333332"
   height="13.333333"
   viewBox="0 0 17.333332 13.333333"
   sodipodi:docname="menu.eps"><metadata
     id="metadata8"><rdf:RDF><cc:Work
         rdf:about=""><dc:format>image/svg+xml</dc:format><dc:type
           rdf:resource="http://purl.org/dc/dcmitype/StillImage" /></cc:Work></rdf:RDF></metadata><defs
     id="defs6" /><sodipodi:namedview
     pagecolor="#ffffff"
     bordercolor="#666666"
     borderopacity="1"
     objecttolerance="10"
     gridtolerance="10"
     guidetolerance="10"
     inkscape:pageopacity="0"
     inkscape:pageshadow="2"
     inkscape:window-width="640"
     inkscape:window-height="480"
     id="namedview4" /><g
     id="g10"
     inkscape:groupmode="layer"
     inkscape:label="ink_ext_XXXXXX"
     transform="matrix(1.3333333,0,0,-1.3333333,0,13.333333)"><g
       id="g12"
       transform="scale(0.1)"><path
         d="M 125,90 H 5 c -2.76172,0 -5,2.2383 -5,5 0,2.7656 2.23828,5 5,5 h 120 c 2.766,0 5,-2.2344 5,-5 0,-2.7617 -2.234,-5 -5,-5"
         style="fill:#ffffff;fill-opacity:1;fill-rule:nonzero;stroke:none"
         id="path14" /><path
         d="M 125,45 H 5 c -2.76172,0 -5,2.2344 -5,5 0,2.7656 2.23828,5 5,5 h 120 c 2.766,0 5,-2.2344 5,-5 0,-2.7656 -2.234,-5 -5,-5"
         style="fill:#ffffff;fill-opacity:1;fill-rule:nonzero;stroke:none"
         id="path16" /><path
         d="M 125,0 H 5 C 2.23828,0 0,2.23438 0,5 c 0,2.76563 2.23828,5 5,5 h 120 c 2.766,0 5,-2.23437 5,-5 0,-2.76562 -2.234,-5 -5,-5"
         style="fill:#ffffff;fill-opacity:1;fill-rule:nonzero;stroke:none"
         id="path18" /></g></g></svg>
