<?xml version="1.0" encoding="UTF-8" standalone="no"?>
<svg
   xmlns:dc="http://purl.org/dc/elements/1.1/"
   xmlns:cc="http://creativecommons.org/ns#"
   xmlns:rdf="http://www.w3.org/1999/02/22-rdf-syntax-ns#"
   xmlns:svg="http://www.w3.org/2000/svg"
   xmlns="http://www.w3.org/2000/svg"
   viewBox="0 0 72.783867 76.222"
   height="76.222"
   width="72.783867"
   xml:space="preserve"
   id="svg2"
   version="1.1"><metadata
     id="metadata8"><rdf:RDF><cc:Work
         rdf:about=""><dc:format>image/svg+xml</dc:format><dc:type
           rdf:resource="http://purl.org/dc/dcmitype/StillImage" /></cc:Work></rdf:RDF></metadata><defs
     id="defs6"><clipPath
       id="clipPath18"
       clipPathUnits="userSpaceOnUse"><path
         id="path16"
         d="M 0,57.167 H 54.588 V 0 H 0 Z" /></clipPath></defs><g
     transform="matrix(1.3333333,0,0,-1.3333333,0,76.222)"
     id="g10"><g
       id="g12"><g
         clip-path="url(#clipPath18)"
         id="g14"><path
           id="path20"
           style="fill:none;stroke:#f7600e;stroke-width:2;stroke-linecap:round;stroke-linejoin:round;stroke-miterlimit:10;stroke-dasharray:none;stroke-opacity:1"
           d="M 42.073,56.167 H 12.513 V 43.449 h 29.56 z" /><path
           id="path22"
           style="fill:none;stroke:#f7600e;stroke-width:2;stroke-linecap:round;stroke-linejoin:round;stroke-miterlimit:10;stroke-dasharray:none;stroke-opacity:1"
           d="m 42.073,1 h -29.56 v 23.201 h 29.56 z" /><g
           transform="translate(50.6064,43.4487)"
           id="g24"><path
             id="path26"
             style="fill:none;stroke:#f7600e;stroke-width:2;stroke-linecap:butt;stroke-linejoin:miter;stroke-miterlimit:10;stroke-dasharray:none;stroke-opacity:1"
             d="m 0,0 h -46.625 c -1.646,0 -2.981,-1.409 -2.981,-3.148 V -28.13 c 0,-1.739 1.335,-3.148 2.981,-3.148 h 8.532 v 12.03 h 29.56 v -12.03 H 0 c 1.646,0 2.981,1.409 2.981,3.148 V -3.148 C 2.981,-1.409 1.646,0 0,0 Z" /></g><g
           transform="translate(41.333,35.5)"
           id="g28"><path
             id="path30"
             style="fill:#f7600e;fill-opacity:1;fill-rule:nonzero;stroke:none"
             d="M 0,0 C 0,-0.829 -0.672,-1.5 -1.5,-1.5 -2.328,-1.5 -3,-0.829 -3,0 -3,0.829 -2.328,1.5 -1.5,1.5 -0.672,1.5 0,0.829 0,0" /></g><g
           transform="translate(46.333,35.5)"
           id="g32"><path
             id="path34"
             style="fill:#f7600e;fill-opacity:1;fill-rule:nonzero;stroke:none"
             d="M 0,0 C 0,-0.829 -0.672,-1.5 -1.5,-1.5 -2.328,-1.5 -3,-0.829 -3,0 -3,0.829 -2.328,1.5 -1.5,1.5 -0.672,1.5 0,0.829 0,0" /></g></g></g></g></svg>