<?xml version="1.0" encoding="UTF-8" standalone="no"?>
<svg
   xmlns:dc="http://purl.org/dc/elements/1.1/"
   xmlns:cc="http://creativecommons.org/ns#"
   xmlns:rdf="http://www.w3.org/1999/02/22-rdf-syntax-ns#"
   xmlns:svg="http://www.w3.org/2000/svg"
   xmlns="http://www.w3.org/2000/svg"
   viewBox="0 0 76 62.666668"
   height="62.666668"
   width="76"
   xml:space="preserve"
   id="svg2"
   version="1.1"><metadata
     id="metadata8"><rdf:RDF><cc:Work
         rdf:about=""><dc:format>image/svg+xml</dc:format><dc:type
           rdf:resource="http://purl.org/dc/dcmitype/StillImage" /></cc:Work></rdf:RDF></metadata><defs
     id="defs6"><clipPath
       id="clipPath18"
       clipPathUnits="userSpaceOnUse"><path
         id="path16"
         d="M 0,47 H 57 V 0 H 0 Z" /></clipPath></defs><g
     transform="matrix(1.3333333,0,0,-1.3333333,0,62.666667)"
     id="g10"><g
       id="g12"><g
         clip-path="url(#clipPath18)"
         id="g14"><g
           transform="translate(56,13.4014)"
           id="g20"><path
             id="path22"
             style="fill:none;stroke:#f7600e;stroke-width:2;stroke-linecap:butt;stroke-linejoin:bevel;stroke-miterlimit:10;stroke-dasharray:none;stroke-opacity:1"
             d="M 0,0 C 0,-1.878 -1.342,-3.401 -2.998,-3.401 H -52.002 C -53.658,-3.401 -55,-1.878 -55,0 v 29.197 c 0,1.878 1.342,3.402 2.998,3.402 H -2.998 C -1.342,32.599 0,31.075 0,29.197 Z" /></g><path
           id="path24"
           style="fill:#f7600e;fill-opacity:1;fill-rule:nonzero;stroke:none"
           d="M 56.75,18 H 0.25 v 2 h 56.5 z" /><path
           id="path26"
           style="fill:#f7600e;fill-opacity:1;fill-rule:nonzero;stroke:none"
           d="m 29.5,1 h -2 v 9 h 2 z" /><path
           id="path28"
           style="fill:#f7600e;fill-opacity:1;fill-rule:nonzero;stroke:none"
           d="M 39,0 H 18 v 2 h 21 z" /><g
           transform="translate(30,14.5)"
           id="g30"><path
             id="path32"
             style="fill:#f7600e;fill-opacity:1;fill-rule:nonzero;stroke:none"
             d="M 0,0 C 0,-0.829 -0.672,-1.5 -1.5,-1.5 -2.328,-1.5 -3,-0.829 -3,0 -3,0.829 -2.328,1.5 -1.5,1.5 -0.672,1.5 0,0.829 0,0" /></g></g></g></g></svg>