<?xml version="1.0" encoding="UTF-8" standalone="no"?>
<svg
   xmlns:dc="http://purl.org/dc/elements/1.1/"
   xmlns:cc="http://creativecommons.org/ns#"
   xmlns:rdf="http://www.w3.org/1999/02/22-rdf-syntax-ns#"
   xmlns:svg="http://www.w3.org/2000/svg"
   xmlns="http://www.w3.org/2000/svg"
   viewBox="0 0 48 77.333336"
   height="77.333336"
   width="48"
   xml:space="preserve"
   id="svg2"
   version="1.1"><metadata
     id="metadata8"><rdf:RDF><cc:Work
         rdf:about=""><dc:format>image/svg+xml</dc:format><dc:type
           rdf:resource="http://purl.org/dc/dcmitype/StillImage" /></cc:Work></rdf:RDF></metadata><defs
     id="defs6"><clipPath
       id="clipPath18"
       clipPathUnits="userSpaceOnUse"><path
         id="path16"
         d="M 0,58 H 36 V 0 H 0 Z" /></clipPath><clipPath
       id="clipPath34"
       clipPathUnits="userSpaceOnUse"><path
         id="path32"
         d="M 0,58 H 36 V 0 H 0 Z" /></clipPath></defs><g
     transform="matrix(1.3333333,0,0,-1.3333333,0,77.333333)"
     id="g10"><g
       id="g12"><g
         clip-path="url(#clipPath18)"
         id="g14"><g
           transform="translate(7.7607,52.8525)"
           id="g20"><path
             id="path22"
             style="fill:none;stroke:#f7600e;stroke-width:2;stroke-linecap:round;stroke-linejoin:round;stroke-miterlimit:10;stroke-dasharray:none;stroke-opacity:1"
             d="M 0,0 -2.253,4.147 -4.506,0 -6.759,-4.149 h -0.002 v -47.704 h 8.998 v 47.704 h 0.016 z" /></g></g></g><path
       id="path24"
       style="fill:#f7600e;fill-opacity:1;fill-rule:nonzero;stroke:none"
       d="M 9.998,46 H 1 v 2 h 8.998 z" /><path
       id="path26"
       style="fill:#f7600e;fill-opacity:1;fill-rule:nonzero;stroke:none"
       d="M 9.998,5 H 1 v 2 h 8.998 z" /><g
       id="g28"><g
         clip-path="url(#clipPath34)"
         id="g30"><path
           id="path36"
           style="fill:none;stroke:#f7600e;stroke-width:2;stroke-linecap:round;stroke-linejoin:round;stroke-miterlimit:10;stroke-dasharray:none;stroke-opacity:1"
           d="M 35,1 H 21 v 56 h 14 z" /><g
           transform="translate(26,50)"
           id="g38"><path
             id="path40"
             style="fill:#f7600e;fill-opacity:1;fill-rule:nonzero;stroke:none"
             d="M 0,0 C 0,-0.552 -0.32,-1 -0.714,-1 H -4.286 C -4.68,-1 -5,-0.552 -5,0 c 0,0.552 0.32,1 0.714,1 h 3.572 C -0.32,1 0,0.552 0,0" /></g><g
           transform="translate(28,43)"
           id="g42"><path
             id="path44"
             style="fill:#f7600e;fill-opacity:1;fill-rule:nonzero;stroke:none"
             d="m 0,0 c 0,-0.552 -0.448,-1 -1,-1 h -5 c -0.552,0 -1,0.448 -1,1 0,0.552 0.448,1 1,1 h 5 C -0.448,1 0,0.552 0,0" /></g><g
           transform="translate(26,36)"
           id="g46"><path
             id="path48"
             style="fill:#f7600e;fill-opacity:1;fill-rule:nonzero;stroke:none"
             d="M 0,0 C 0,-0.552 -0.32,-1 -0.714,-1 H -4.286 C -4.68,-1 -5,-0.552 -5,0 c 0,0.552 0.32,1 0.714,1 h 3.572 C -0.32,1 0,0.552 0,0" /></g><g
           transform="translate(28,29)"
           id="g50"><path
             id="path52"
             style="fill:#f7600e;fill-opacity:1;fill-rule:nonzero;stroke:none"
             d="m 0,0 c 0,-0.552 -0.448,-1 -1,-1 h -5 c -0.552,0 -1,0.448 -1,1 0,0.552 0.448,1 1,1 h 5 C -0.448,1 0,0.552 0,0" /></g><g
           transform="translate(26,22)"
           id="g54"><path
             id="path56"
             style="fill:#f7600e;fill-opacity:1;fill-rule:nonzero;stroke:none"
             d="M 0,0 C 0,-0.552 -0.32,-1 -0.714,-1 H -4.286 C -4.68,-1 -5,-0.552 -5,0 c 0,0.552 0.32,1 0.714,1 h 3.572 C -0.32,1 0,0.552 0,0" /></g><g
           transform="translate(28,15)"
           id="g58"><path
             id="path60"
             style="fill:#f7600e;fill-opacity:1;fill-rule:nonzero;stroke:none"
             d="m 0,0 c 0,-0.552 -0.448,-1 -1,-1 h -5 c -0.552,0 -1,0.448 -1,1 0,0.552 0.448,1 1,1 h 5 C -0.448,1 0,0.552 0,0" /></g><g
           transform="translate(26,8)"
           id="g62"><path
             id="path64"
             style="fill:#f7600e;fill-opacity:1;fill-rule:nonzero;stroke:none"
             d="M 0,0 C 0,-0.552 -0.32,-1 -0.714,-1 H -4.286 C -4.68,-1 -5,-0.552 -5,0 c 0,0.552 0.32,1 0.714,1 h 3.572 C -0.32,1 0,0.552 0,0" /></g></g></g></g></svg>